HIERARCHY
ROOT Hips
{
	OFFSET 0.00000 0.00000 0.00000
	CHANNELS 6 Xposition Yposition Zposition Zrotation Yrotation Xrotation 
	JOINT RightUpLegDummy
	{
		OFFSET 0 0 0
		CHANNELS 3 Zrotation Yrotation Xrotation
		JOINT RightUpLeg
		{
			OFFSET -3.52197 -3.41223 0.04002
			CHANNELS 3 Zrotation Yrotation Xrotation
			JOINT RightLeg
			{
				OFFSET 0.00006 -17.42390 1.60435
				CHANNELS 3 Zrotation Yrotation Xrotation
				JOINT RightFoot
				{
					OFFSET 0.06154 -16.50078 -1.63900
					CHANNELS 3 Zrotation Yrotation Xrotation
					JOINT RightToes
					{
						OFFSET 0.00298 -1.73825 3.34613
						CHANNELS 3 Zrotation Yrotation Xrotation
						End Site
						{
							OFFSET 0.00480 -0.05416 3.85043
						}
					}
				}
			}
		}
	}
	JOINT SpineDummy
	{
		OFFSET 0 0 0
		CHANNELS 3 Zrotation Yrotation Xrotation
		JOINT Spine
		{
			OFFSET 0.00000 4.68130 0.00000
			CHANNELS 3 Zrotation Yrotation Xrotation
			JOINT Spine1
			{
				OFFSET -0.00000 10.10138 0.05002
				CHANNELS 3 Zrotation Yrotation Xrotation
				JOINT HEadDummy
				{
					OFFSET 0 0 0
					CHANNELS 3 Zrotation Yrotation Xrotation
					JOINT Head
					{
						OFFSET -0.00000 3.43865 0.00438
						CHANNELS 3 Zrotation Yrotation Xrotation
						End Site
						{
							OFFSET -0.11417 5.02924 0.98962
						}
					}
				}
				JOINT LeftShoulder1Dummy
				{
					OFFSET 0 0 0
					CHANNELS 3 Zrotation Yrotation Xrotation
					JOINT LeftShoulder1
					{
						OFFSET 3.53937 -0.14262 -0.08662
						CHANNELS 3 Zrotation Yrotation Xrotation
						JOINT LeftArm
						{
							OFFSET 4.04833 -0.00133 0.12681
							CHANNELS 3 Zrotation Yrotation Xrotation
							JOINT LeftForeArm
							{
								OFFSET 10.33880 -0.01036 -0.55515
								CHANNELS 3 Zrotation Yrotation Xrotation
								JOINT LeftHand
								{
									OFFSET 8.69677 0.07543 0.40060
									CHANNELS 3 Zrotation Yrotation Xrotation
									End Site
									{
										OFFSET 5.28377 -0.21905 0.59205
									}
								}
							}
						}
					}
				}
				JOINT RightShoulderDummy
				{
					OFFSET 0 0 0
					CHANNELS 3 Zrotation Yrotation Xrotation
					JOINT RightShoulder
					{
						OFFSET -3.53937 -0.14262 -0.08660
						CHANNELS 3 Zrotation Yrotation Xrotation
						JOINT RightArm
						{
							OFFSET -4.04833 -0.00133 0.12683
							CHANNELS 3 Zrotation Yrotation Xrotation
							JOINT RightForeArm
							{
								OFFSET -10.37987 -0.01039 -0.55511
								CHANNELS 3 Zrotation Yrotation Xrotation
								JOINT RightHand
								{
									OFFSET -8.67398 0.07538 0.40058
									CHANNELS 3 Zrotation Yrotation Xrotation
									End Site
									{
										OFFSET -5.24810 -0.21916 0.59204
									}
								}
							}
						}
					}
				}
			}
		}
	}
	JOINT LeftUpLegDummy
	{
		OFFSET 0 0 0
		CHANNELS 3 Zrotation Yrotation Xrotation
		JOINT LeftUpLeg
		{
			OFFSET 3.52197 -3.41223 0.04002
			CHANNELS 3 Zrotation Yrotation Xrotation
			JOINT LeftLeg
			{
				OFFSET -0.00012 -17.42399 1.60337
				CHANNELS 3 Zrotation Yrotation Xrotation
				JOINT LeftFoot
				{
					OFFSET -0.09972 -16.50070 -1.63802
					CHANNELS 3 Zrotation Yrotation Xrotation
					JOINT LeftToes
					{
						OFFSET -0.01575 -1.73823 3.34611
						CHANNELS 3 Zrotation Yrotation Xrotation
						End Site
						{
							OFFSET 0.03150 -0.01868 3.85031
						}
					}
				}
			}
		}
	}
}
MOTION
Frames: 18
Frame Time: 0.033333
-4.3657 38.2450 9.4285 167.4750 -19.5597 -171.6670 0.0000 0.0000 0.0000 -18.9099 -26.7472 -28.3931 -5.7553 -7.3517 31.4354 15.5490 -2.4217 6.4368 -0.0000 -0.0000 0.0000 0.0000 0.0000 0.0000 -3.8108 -0.4296 14.5809 7.4937 -3.8590 19.9607 0.0000 0.0000 0.0000 -0.8587 -20.0647 -12.0377 0.0000 0.0000 0.0000 -5.1151 0.9522 0.3311 -50.2186 -20.3548 20.1446 178.6163 -78.8107 -163.6148 15.9049 -2.6707 -1.0848 0.0000 0.0000 0.0000 4.3480 0.6623 0.5118 55.5388 13.5511 26.0331 175.3293 65.2731 137.6686 -18.7812 -0.1484 -0.8507 0.0000 0.0000 0.0000 0.8903 -7.0249 -8.5816 1.9042 0.7333 14.3519 -15.4359 -0.0464 -12.2223 -0.0000 -0.0000 -0.0000
-4.5442 38.2371 9.6008 167.3690 -19.0347 -171.7780 0.0000 0.0000 0.0000 -19.2752 -26.5841 -28.3407 -5.5338 -7.2414 30.7303 15.4786 -2.4695 6.8727 -0.0000 -0.0000 0.0000 0.0000 0.0000 0.0000 -3.7941 -0.3391 14.2238 7.3783 -3.7400 20.4586 0.0000 0.0000 0.0000 -0.6193 -20.1628 -11.9713 0.0000 0.0000 0.0000 -4.7875 0.9016 0.3286 -50.1570 -22.0074 20.3462 178.7889 -78.4837 -164.3580 16.4903 -2.4891 -1.1015 0.0000 0.0000 0.0000 4.4834 0.7483 0.5274 55.3443 13.8494 26.5280 175.2208 65.3981 136.3897 -19.6212 0.0085 -0.9150 0.0000 0.0000 0.0000 0.4317 -6.3880 -8.6902 1.7293 0.5825 14.7094 -15.6125 -0.0897 -12.5428 -0.0000 -0.0000 -0.0000
-4.7577 38.2200 9.8166 167.3400 -18.5200 -172.0980 0.0000 0.0000 0.0000 -19.7788 -26.0774 -28.1231 -5.4865 -7.3595 30.0566 15.5001 -2.5556 7.4807 -0.0000 -0.0000 0.0000 0.0000 0.0000 0.0000 -4.0223 -0.2748 14.0189 7.3693 -3.7319 20.9699 0.0000 0.0000 0.0000 -0.3352 -20.1576 -11.8782 0.0000 0.0000 0.0000 -4.5015 0.7937 0.3284 -49.8232 -23.5252 20.1075 178.9845 -78.1170 -165.2557 17.2540 -2.2484 -1.1200 0.0000 0.0000 0.0000 4.4924 0.8414 0.5393 55.3694 14.7342 27.3729 174.9858 65.9097 134.2766 -20.9674 0.0675 -0.9897 0.0000 0.0000 0.0000 0.0197 -5.9027 -8.8688 1.4938 0.5872 15.4749 -15.5591 -0.1395 -12.9285 -0.0000 -0.0000 -0.0000
-5.0009 38.1989 10.0541 167.2900 -18.0871 -172.4880 0.0000 0.0000 0.0000 -20.4331 -25.5255 -27.8053 -5.4337 -7.4686 29.3942 15.5501 -2.6653 8.2225 -0.0000 -0.0000 0.0000 0.0000 0.0000 0.0000 -4.3989 -0.2795 13.8388 7.4520 -3.8632 21.5431 0.0000 0.0000 0.0000 -0.1745 -20.0701 -11.6680 0.0000 0.0000 0.0000 -4.1598 0.7220 0.3299 -49.2967 -24.9496 19.5890 179.1276 -77.8802 -165.9562 18.0085 -2.0987 -1.1483 0.0000 0.0000 0.0000 4.1658 0.8657 0.5297 55.9925 16.0751 28.6706 174.6828 66.8424 132.4466 -22.6430 0.2929 -1.1139 0.0000 0.0000 0.0000 -0.4467 -5.8882 -9.0803 1.3782 0.9247 16.3985 -15.4516 -0.1873 -13.3086 -0.0000 -0.0000 -0.0000
-5.2474 38.1738 10.2753 167.2560 -17.4672 -172.8880 0.0000 0.0000 0.0000 -21.0383 -24.9276 -27.5573 -5.2495 -7.3868 28.7255 15.5868 -2.7626 8.8860 -0.0000 -0.0000 0.0000 0.0000 0.0000 0.0000 -4.7477 -0.1793 13.5376 7.4175 -3.8272 22.1840 0.0000 0.0000 0.0000 -0.0842 -20.1296 -11.3792 0.0000 0.0000 0.0000 -3.7245 0.6786 0.3321 -48.6679 -26.5143 19.0541 179.1768 -77.9441 -166.2358 18.6119 -2.0581 -1.1816 0.0000 0.0000 0.0000 3.5477 0.8112 0.4995 57.0569 17.3280 30.1042 174.4498 67.7471 131.7921 -24.1320 0.7791 -1.2881 0.0000 0.0000 0.0000 -0.9606 -6.0319 -9.2315 1.4765 1.5725 17.3045 -15.3633 -0.2394 -13.7252 -0.0000 -0.0000 -0.0000
-5.4610 38.1514 10.4581 167.2900 -16.5342 -173.3330 0.0000 0.0000 0.0000 -21.3888 -24.3885 -27.4428 -4.8887 -7.0332 28.0423 15.5463 -2.8281 9.4176 -0.0000 -0.0000 0.0000 0.0000 0.0000 0.0000 -4.9957 0.1257 13.2496 7.1891 -3.4599 22.7086 0.0000 0.0000 0.0000 0.0661 -20.4734 -11.1396 0.0000 0.0000 0.0000 -3.3134 0.6136 0.3341 -47.8739 -28.1251 18.5480 179.2172 -78.1557 -166.5173 18.9353 -1.9302 -1.1827 0.0000 0.0000 0.0000 2.9231 0.7668 0.4707 58.0133 18.0743 31.3218 174.3815 68.1894 132.2382 -25.1917 1.3062 -1.4592 0.0000 0.0000 0.0000 -1.4384 -5.8648 -9.2204 1.6840 2.2512 18.0731 -15.1829 -0.2869 -14.1284 -0.0000 -0.0000 -0.0000
-5.6269 38.1419 10.6034 167.3120 -15.6002 -173.7830 0.0000 0.0000 0.0000 -21.5020 -24.3672 -27.4257 -4.3497 -6.3613 27.4401 15.3816 -2.8745 9.9857 -0.0000 -0.0000 0.0000 0.0000 0.0000 0.0000 -5.1641 0.4924 13.1966 6.8960 -2.9682 22.8945 0.0000 0.0000 0.0000 0.3016 -21.0619 -10.9643 0.0000 0.0000 0.0000 -3.0979 0.5360 0.3350 -46.7609 -29.4848 17.9486 179.3332 -78.2316 -167.1566 18.9856 -1.6812 -1.1467 0.0000 0.0000 0.0000 2.5442 0.7786 0.4577 58.5551 18.2652 32.2013 174.4458 68.0820 132.8247 -25.8440 1.6927 -1.5834 0.0000 0.0000 0.0000 -1.8749 -5.4932 -9.0488 1.8706 2.7660 18.5703 -14.8723 -0.3061 -14.3439 -0.0000 -0.0000 -0.0000
-5.7454 38.1448 10.7080 167.2320 -15.0305 -174.1120 0.0000 0.0000 0.0000 -21.5041 -25.0967 -27.5086 -3.7318 -5.4729 27.1175 15.1439 -2.9147 10.6261 -0.0000 -0.0000 0.0000 0.0000 0.0000 0.0000 -5.2495 0.7408 13.3275 6.6469 -2.6005 22.7739 0.0000 0.0000 0.0000 0.5899 -21.8139 -10.7595 0.0000 0.0000 0.0000 -3.0662 0.5081 0.3340 -45.4348 -30.6079 17.2409 179.4720 -78.1118 -167.8718 18.9613 -1.5255 -1.1207 0.0000 0.0000 0.0000 2.3965 0.7927 0.4537 58.8300 18.0782 32.7218 174.5631 67.6043 133.0021 -26.1130 1.9516 -1.6581 0.0000 0.0000 0.0000 -2.2860 -5.3371 -8.8285 2.0143 3.1440 18.7465 -14.5977 -0.2947 -14.3103 -0.0000 -0.0000 -0.0000
-5.8069 38.1486 10.7560 167.0580 -14.8438 -174.2670 0.0000 0.0000 0.0000 -21.4756 -26.2145 -27.7059 -3.1953 -4.6189 27.1957 14.9150 -2.9347 11.1192 -0.0000 -0.0000 0.0000 0.0000 0.0000 0.0000 -5.2798 0.8635 13.4197 6.4429 -2.3791 22.5898 0.0000 0.0000 0.0000 0.9421 -22.6511 -10.4843 0.0000 0.0000 0.0000 -2.9901 0.5459 0.3280 -44.3418 -31.7627 16.5370 179.5606 -77.9303 -168.3236 18.9694 -1.5388 -1.1232 0.0000 0.0000 0.0000 2.2824 0.7698 0.4469 59.0653 17.7367 32.8581 174.7088 66.9465 133.1241 -26.1216 2.1576 -1.7045 0.0000 0.0000 0.0000 -2.6326 -5.4208 -8.6163 2.1170 3.3923 18.6658 -14.5127 -0.2727 -14.1483 -0.0000 -0.0000 -0.0000
-5.7940 38.1451 10.7418 166.7920 -14.8346 -174.3050 0.0000 0.0000 0.0000 -21.4751 -27.2812 -28.0096 -2.7880 -3.9123 27.6656 14.7006 -2.9177 11.3202 -0.0000 -0.0000 0.0000 0.0000 0.0000 0.0000 -5.3961 0.9545 13.4572 6.2649 -2.2161 22.4179 0.0000 0.0000 0.0000 1.3474 -23.4620 -10.1794 0.0000 0.0000 0.0000 -2.7144 0.5746 0.3176 -43.7882 -32.9779 15.9231 179.6141 -77.7702 -168.5972 18.8844 -1.5496 -1.1198 0.0000 0.0000 0.0000 2.0904 0.7338 0.4360 59.2643 17.4172 32.7298 174.8841 66.1779 133.4931 -26.1749 2.3419 -1.7491 0.0000 0.0000 0.0000 -2.9110 -5.4102 -8.3535 2.1294 3.4119 18.3864 -14.5515 -0.2493 -13.9474 -0.0000 -0.0000 -0.0000
-5.7032 38.1345 10.6787 166.4070 -14.8951 -174.2430 0.0000 0.0000 0.0000 -21.5111 -28.2856 -28.4794 -2.4177 -3.2416 28.4969 14.4707 -2.8720 11.3290 -0.0000 -0.0000 0.0000 0.0000 0.0000 0.0000 -5.6613 1.0253 13.5947 6.0798 -2.0899 22.0997 0.0000 0.0000 0.0000 1.7101 -24.1581 -9.9001 0.0000 0.0000 0.0000 -2.3677 0.5186 0.3145 -43.5555 -34.0110 15.4313 179.6595 -77.6105 -168.8258 18.6704 -1.4824 -1.0963 0.0000 0.0000 0.0000 1.8788 0.6830 0.4230 59.3093 17.2098 32.6190 175.0659 65.3126 133.8651 -26.4470 2.5474 -1.8144 0.0000 0.0000 0.0000 -3.1560 -5.1869 -8.0483 2.0332 3.1957 17.9425 -14.5862 -0.2167 -13.6732 -0.0000 -0.0000 -0.0000
-5.5457 38.1182 10.5777 165.9820 -15.1130 -174.0060 0.0000 0.0000 0.0000 -21.4493 -29.4195 -29.1649 -2.0342 -2.5624 29.6099 14.2406 -2.8103 11.2104 -0.0000 -0.0000 0.0000 0.0000 0.0000 0.0000 -5.8805 0.9703 13.8067 5.8346 -2.0648 21.6082 0.0000 0.0000 0.0000 1.9595 -24.7292 -9.7319 0.0000 0.0000 0.0000 -2.1732 0.4027 0.3215 -43.2179 -34.7376 15.0592 179.6721 -77.4319 -168.8810 18.5471 -1.4704 -1.0870 0.0000 0.0000 0.0000 1.7234 0.5851 0.4075 59.1454 17.1603 32.6965 175.2283 64.4670 134.1431 -26.7858 2.8703 -1.9123 0.0000 0.0000 0.0000 -3.2843 -4.9834 -7.8704 1.8824 2.8563 17.4230 -14.6853 -0.1757 -13.3233 -0.0000 -0.0000 -0.0000
-5.3352 38.0971 10.4370 165.6760 -15.5876 -173.5840 0.0000 0.0000 0.0000 -21.1333 -30.6768 -29.9249 -1.7071 -2.0042 30.8038 14.0371 -2.7217 10.8272 -0.0000 -0.0000 0.0000 0.0000 0.0000 0.0000 -5.8300 0.7083 13.9359 5.5499 -2.2126 21.1423 0.0000 0.0000 0.0000 2.1327 -25.1730 -9.7725 0.0000 0.0000 0.0000 -2.1519 0.3170 0.3297 -42.7283 -35.2094 14.7734 179.6329 -77.2536 -168.6395 18.6238 -1.5557 -1.1048 0.0000 0.0000 0.0000 1.6158 0.4855 0.3938 58.7669 17.3162 32.8581 175.3457 63.8910 134.5437 -27.0454 3.3391 -2.0397 0.0000 0.0000 0.0000 -3.1420 -4.9744 -7.9108 1.7283 2.4293 16.9162 -15.0157 -0.1397 -12.9910 -0.0000 -0.0000 -0.0000
-5.0826 38.0722 10.2601 165.5200 -16.1920 -173.1370 0.0000 0.0000 0.0000 -20.6044 -31.8459 -30.5657 -1.4778 -1.6220 31.9302 13.8540 -2.5985 10.1166 -0.0000 -0.0000 0.0000 0.0000 0.0000 0.0000 -5.5661 0.3239 14.0481 5.3205 -2.4951 20.7809 0.0000 0.0000 0.0000 2.2888 -25.4429 -10.0232 0.0000 0.0000 0.0000 -2.1721 0.2946 0.3326 -42.4028 -35.4231 14.5641 179.5657 -77.1076 -168.2329 18.7313 -1.5903 -1.1167 0.0000 0.0000 0.0000 1.5298 0.4849 0.3907 58.1665 17.6653 32.8981 175.3768 63.7722 134.7685 -27.3396 3.7629 -2.1618 0.0000 0.0000 0.0000 -2.7454 -5.0785 -7.9885 1.5965 1.9374 16.4034 -15.5397 -0.1133 -12.7288 -0.0000 -0.0000 -0.0000
-4.7982 38.0421 10.0642 165.4190 -16.5928 -172.8150 0.0000 0.0000 0.0000 -20.0052 -32.7203 -31.1745 -1.2653 -1.2879 33.0763 13.6754 -2.4665 9.3025 -0.0000 -0.0000 0.0000 0.0000 0.0000 0.0000 -5.3001 0.0132 14.3484 5.1496 -2.7274 20.3874 0.0000 0.0000 0.0000 2.4312 -25.5252 -10.3986 0.0000 0.0000 0.0000 -2.2118 0.2766 0.3356 -42.3785 -35.3469 14.4680 179.5061 -77.0198 -167.8779 18.8105 -1.5205 -1.1107 0.0000 0.0000 0.0000 1.4866 0.5832 0.3988 57.3805 18.0872 32.7178 175.2865 64.0629 134.0462 -27.7784 3.8681 -2.2232 0.0000 0.0000 0.0000 -2.2792 -5.1318 -7.9040 1.5378 1.5502 15.8564 -16.0379 -0.0894 -12.5057 -0.0000 -0.0000 -0.0000
-4.4932 38.0010 9.8661 165.3330 -16.5988 -172.5620 0.0000 0.0000 0.0000 -19.3179 -33.2758 -32.0517 -0.9798 -0.8850 34.3945 13.4633 -2.3485 8.6342 -0.0000 -0.0000 0.0000 0.0000 0.0000 0.0000 -5.0716 -0.1294 14.7660 4.9238 -2.7575 19.9389 0.0000 0.0000 0.0000 2.5367 -25.4905 -10.8520 0.0000 0.0000 0.0000 -2.3747 0.1953 0.3488 -42.4002 -35.0962 14.4404 179.4659 -76.9627 -167.6358 19.0436 -1.4808 -1.1186 0.0000 0.0000 0.0000 1.5259 0.6817 0.4098 56.4830 18.4527 32.2977 175.0978 64.5717 132.3323 -28.3199 3.6998 -2.2281 0.0000 0.0000 0.0000 -1.8305 -5.0618 -7.7591 1.5868 1.4052 15.3660 -16.4306 -0.0680 -12.3221 -0.0000 -0.0000 -0.0000
-4.1814 37.9470 9.6722 165.2870 -16.4185 -172.2280 0.0000 0.0000 0.0000 -18.4697 -33.7284 -33.2478 -0.6242 -0.4339 35.8366 13.1391 -2.2284 8.0908 -0.0000 -0.0000 0.0000 0.0000 0.0000 0.0000 -4.7977 -0.2101 15.0319 4.6301 -2.6809 19.6061 0.0000 0.0000 0.0000 2.5937 -25.4091 -11.4072 0.0000 0.0000 0.0000 -2.6561 0.0656 0.3710 -42.2421 -34.8567 14.3383 179.4317 -76.8530 -167.4182 19.4237 -1.5326 -1.1499 0.0000 0.0000 0.0000 1.6478 0.7478 0.4208 55.5171 18.7372 31.6362 174.8823 65.1774 130.5291 -29.0386 3.6841 -2.2843 0.0000 0.0000 0.0000 -1.3491 -4.9122 -7.7700 1.6782 1.3603 15.0006 -16.8319 -0.0560 -12.2126 -0.0000 -0.0000 -0.0000
-3.8771 37.8887 9.4878 165.1950 -16.4197 -171.7980 0.0000 0.0000 0.0000 -17.6344 -34.3680 -34.4275 -0.2299 0.0161 37.2082 12.7183 -2.0910 7.5077 -0.0000 -0.0000 0.0000 0.0000 0.0000 0.0000 -4.5539 -0.3781 15.1384 4.4388 -2.7455 19.4427 0.0000 0.0000 0.0000 2.6050 -25.2841 -12.1124 0.0000 0.0000 0.0000 -2.8892 -0.0285 0.3884 -42.0497 -34.7017 14.1468 179.3874 -76.6827 -167.1253 19.6799 -1.5699 -1.1716 0.0000 0.0000 0.0000 1.7992 0.8406 0.4358 54.5094 18.9691 30.7964 174.6704 65.8534 129.1355 -30.0904 4.0817 -2.4748 0.0000 0.0000 0.0000 -0.8976 -4.7585 -7.8825 1.7139 1.1371 14.6131 -17.2406 -0.0450 -12.1154 -0.0000 -0.0000 -0.0000
